<svg xmlns="http://www.w3.org/2000/svg" width="960" height="600" viewBox="0 0 960 600" role="img" aria-label="General preview">
  <rect width="960" height="600" fill="#f8f9fc"/>
  <path d="M0 80 H960 M0 200 H960 M0 320 H960 M0 440 H960 M120 0 V600 M300 0 V600 M480 0 V600 M660 0 V600 M840 0 V600" stroke="#090e22" stroke-width="1.5" opacity=".06"/>
  <path d="M0 404 C134 292 276 492 438 332 S728 118 960 226 V600 H0Z" fill="#ca221f" opacity=".9"/>
  <path d="M84 100 H810 M84 166 H620 M84 232 H714" stroke="#090e22" stroke-width="14" stroke-linecap="round"/>
  <g transform="translate(560 286) rotate(-7)">
    <rect width="276" height="178" rx="14" fill="#ffffff" stroke="#dde0ee" stroke-width="2"/>
    <rect x="34" y="36" width="118" height="18" rx="9" fill="#f8f9fc"/>
    <rect x="34" y="78" width="210" height="16" rx="8" fill="#f8f9fc" opacity=".55"/>
    <rect x="34" y="118" width="154" height="32" rx="8" fill="#0b68b7"/>
  </g>
  <circle cx="150" cy="430" r="52" fill="#0b68b7" opacity=".9"/>
  <circle cx="238" cy="430" r="52" fill="#ffffff" opacity=".9"/>
  <circle cx="326" cy="430" r="52" fill="#0b68b7" opacity=".9"/>
</svg>
