<svg xmlns="http://www.w3.org/2000/svg" width="720" height="460" viewBox="0 0 720 460" role="img" aria-label="/twt-html-site-creator preview">
  <rect width="720" height="460" fill="#f8f9fc"/>
  <path d="M0 70 H720 M0 170 H720 M0 270 H720 M0 370 H720 M90 0 V460 M210 0 V460 M330 0 V460 M450 0 V460 M570 0 V460" stroke="#090e22" stroke-width="1.5" opacity=".06"/>
  <circle cx="576" cy="88" r="126" fill="#ca221f" opacity=".9"/>
  <path d="M0 340 L190 240 L332 298 L470 190 L720 290 V460 H0Z" fill="#0b68b7" opacity=".65"/>
  <rect x="54" y="58" width="406" height="252" rx="16" fill="#ffffff" stroke="#dde0ee" stroke-width="2"/>
  <rect x="84" y="94" width="180" height="18" rx="9" fill="#090e22"/>
  <rect x="84" y="138" width="316" height="14" rx="7" fill="#090e22" opacity=".5"/>
  <rect x="84" y="172" width="270" height="14" rx="7" fill="#090e22" opacity=".3"/>
  <rect x="84" y="224" width="132" height="40" rx="8" fill="#ca221f"/>
  <text x="54" y="392" fill="#090e22" font-family="Montserrat, Arial, sans-serif" font-size="38" font-weight="800">/twt-html-site-creator</text>
  <text x="56" y="424" fill="#7a82a8" font-family="Arial, sans-serif" font-size="18" letter-spacing="1">DEVELOP</text>
</svg>
