<svg xmlns="http://www.w3.org/2000/svg" width="720" height="460" viewBox="0 0 720 460" role="img" aria-label="/twt-mockup-define preview">
  <rect width="720" height="460" fill="#f7f3e8"/>
  <path d="M0 70 H720 M0 170 H720 M0 270 H720 M0 370 H720 M90 0 V460 M210 0 V460 M330 0 V460 M450 0 V460 M570 0 V460" stroke="#101214" stroke-width="2" opacity=".12"/>
  <circle cx="576" cy="88" r="126" fill="#f6c22b" opacity=".95"/>
  <path d="M0 340 L190 240 L332 298 L470 190 L720 290 V460 H0Z" fill="#ca221f" opacity=".72"/>
  <rect x="54" y="58" width="406" height="252" fill="#fffef6" stroke="#101214" stroke-width="6"/>
  <rect x="84" y="94" width="180" height="18" rx="9" fill="#101214"/>
  <rect x="84" y="138" width="316" height="14" rx="7" fill="#101214" opacity=".55"/>
  <rect x="84" y="172" width="270" height="14" rx="7" fill="#101214" opacity=".35"/>
  <rect x="84" y="224" width="132" height="40" fill="#f6c22b"/>
  <text x="54" y="392" fill="#101214" font-family="Arial Black, Arial, sans-serif" font-size="38" font-weight="900">/twt-mockup-define</text>
  <text x="56" y="424" fill="#363b42" font-family="Arial, sans-serif" font-size="18">DESIGN</text>
</svg>
